<!--?xml version="1.0" encoding="utf-8"?-->
<!-- Generator: Adobe Illustrator 18.0.0, SVG Export Plug-In . SVG Version: 6.00 Build 0)  -->

<svg version="1.1" id="_x32_" xmlns="http://www.w3.org/2000/svg" xmlns:xlink="http://www.w3.org/1999/xlink" x="0px" y="0px" viewBox="0 0 512 512" style="width: 256px; height: 256px; opacity: 1;" xml:space="preserve">
<style type="text/css">
	.st0{fill:#4B4B4B;}
</style>
<g>
	<polygon class="st0" points="511.397,164.089 511.569,164.015 468.826,133.828 485.083,96.509 491.008,83.046 490.947,83.046 
		491.015,82.89 431.94,79.766 429.357,35.934 428.507,20.546 428.451,20.569 428.441,20.401 377.924,42.774 357.921,14.868 
		347.41,0.062 347.371,0.152 347.262,0 320.586,62.063 449.577,191.046 490.237,173.315 511.477,164.147 	"></polygon>
	<path class="st0" d="M319.766,99.488c-8.393-8.391-23.584-23.291-47.93-25.54c-0.451-0.039-0.91-0.066-1.366-0.102
		c-1.584-0.113-3.075-0.352-4.734-0.352c-1.113,0-2.27,0.211-3.395,0.266c-0.964,0.047-1.954,0.141-2.944,0.226
		c-2.63,0.238-5.281,0.586-7.975,1.109c-0.734,0.144-1.496,0.34-2.241,0.508c-3.069,0.687-6.169,1.523-9.316,2.581
		c-0.439,0.148-0.894,0.332-1.337,0.488c-3.612,1.269-7.268,2.764-10.98,4.518c-0.35,0.168-0.709,0.355-1.062,0.523
		c-4.02,1.948-8.096,4.174-12.229,6.681c-0.242,0.148-0.486,0.3-0.728,0.449c-14.572,8.949-29.792,21.17-45.664,37.042
		c-1.257,1.258-2.464,2.468-3.651,4.006l31.854,31.853c4.268,4.272,3.729,11.749-1.199,16.672c-0.468,0.468-0.992,0.859-1.511,1.253
		c-0.342,0.258-0.683,0.504-1.038,0.726c-1.14,0.711-2.356,1.234-3.616,1.578c-0.318,0.086-0.629,0.183-0.947,0.246
		c-0.75,0.14-1.505,0.242-2.263,0.242c-2.819,0-5.4-1.027-7.266-2.89l-29.19-28.976l-1.956-1.96
		c-0.004,0.004-0.004,0.008-0.008,0.008l-0.113-0.114c-20.562,23.767-40.932,52.071-60.521,84.331l41.088,41.088
		c1.746,1.745,2.604,4.166,2.425,6.813c-0.18,2.663-1.386,5.236-3.397,7.247c-0.47,0.472-0.988,0.878-1.519,1.257
		c-0.144,0.105-0.289,0.211-0.438,0.304c-1.136,0.742-2.372,1.277-3.649,1.574c-0.084,0.02-0.166,0.051-0.252,0.066
		c-0.683,0.14-1.374,0.218-2.066,0.218c-2.382,0-4.564-0.867-6.142-2.448l-29.901-29.674l-7.403-7.407
		c-0.008,0.012-0.014,0.024-0.02,0.039l-0.117-0.117C35.132,322.942,6.847,393.887,2.564,422.547
		c-6.813,45.515,3.725,56.038,17.071,69.368l0.113-0.113h0.004l0.785,1.012C30.825,503.109,39.712,512,65.396,512
		c7.153,0,15.185-0.679,24.548-2.077c11.218-1.663,29.897-7.411,52.594-16.18c7.996-3.178,16.548-6.654,25.516-10.597
		c31.947-13.845,94.088-43.376,154.173-86.673c0.769-0.55,1.568-1.07,2.335-1.624l-0.02-0.024c0.043-0.031,0.088-0.058,0.131-0.094
		l-36.683-36.672c-2.081-2.077-3.112-4.951-2.901-8.106c0.211-3.151,1.632-6.196,4.01-8.574c2.382-2.386,5.431-3.826,9.359-4.076
		c2.905,0,5.451,1.015,7.364,2.928l39.401,39.194c14.712-11.667,27.968-23.369,39.393-34.782
		c89.855-89.86,44.852-135.308,30.061-150.24L319.766,99.488z M377.499,267.122c-0.465,0.461-0.98,0.855-1.498,1.238
		c-0.256,0.191-0.508,0.375-0.773,0.542c-1.134,0.719-2.352,1.246-3.614,1.566c-0.205,0.051-0.404,0.121-0.609,0.16
		c-0.717,0.14-1.441,0.23-2.163,0.23c-2.608,0-4.998-0.953-6.732-2.686l-31.549-31.545c-3.944-3.944-3.467-10.847,1.066-15.384
		c0.468-0.468,0.988-0.867,1.511-1.253c0.252-0.188,0.502-0.371,0.763-0.535c1.138-0.726,2.36-1.253,3.625-1.577
		c0.207-0.051,0.408-0.117,0.617-0.16c0.716-0.141,1.443-0.23,2.167-0.23c2.6,0,4.986,0.952,6.712,2.678l31.541,31.556
		c1.909,1.91,2.854,4.561,2.659,7.462C381.024,262.101,379.701,264.916,377.499,267.122z M247.799,313.836
		c-1.128,0.719-2.343,1.242-3.598,1.566c-0.211,0.051-0.42,0.121-0.632,0.164c-0.715,0.14-1.435,0.23-2.156,0.23
		c-2.608,0-4.998-0.953-6.731-2.69l-53.368-53.364c-1.73-1.734-2.686-4.123-2.686-6.728c0-0.718,0.09-1.441,0.23-2.151
		c0.043-0.219,0.113-0.43,0.168-0.644c0.32-1.253,0.844-2.464,1.56-3.588c0.17-0.27,0.357-0.527,0.548-0.785
		c0.385-0.516,0.777-1.031,1.242-1.496c0.469-0.468,0.99-0.867,1.513-1.253c0.25-0.184,0.494-0.363,0.752-0.527
		c1.14-0.726,2.368-1.257,3.637-1.578c0.201-0.051,0.398-0.117,0.599-0.156c0.718-0.141,1.443-0.234,2.167-0.234
		c2.604,0,4.99,0.953,6.72,2.682l53.371,53.371c1.913,1.913,2.858,4.568,2.659,7.466c-0.195,2.913-1.515,5.728-3.717,7.926
		c-0.465,0.464-0.98,0.855-1.498,1.242C248.322,313.481,248.067,313.668,247.799,313.836z M91.791,388.8
		c1.132-0.718,2.347-1.242,3.604-1.562c0.211-0.055,0.416-0.121,0.627-0.164c0.716-0.141,1.439-0.23,2.161-0.23
		c2.608,0,4.994,0.953,6.72,2.682l50.95,50.943c1.91,1.913,2.85,4.564,2.655,7.469c-0.199,2.917-1.519,5.728-3.721,7.926
		c-0.466,0.468-0.984,0.863-1.503,1.249c-0.254,0.188-0.506,0.371-0.767,0.535c-1.132,0.722-2.348,1.249-3.61,1.57
		c-0.207,0.054-0.412,0.121-0.621,0.16c-0.715,0.14-1.435,0.23-2.156,0.23c-2.608,0-4.998-0.953-6.731-2.686l-50.95-50.947
		c-1.91-1.909-2.854-4.56-2.655-7.462c0.199-2.912,1.519-5.728,3.721-7.93c0.465-0.461,0.98-0.855,1.496-1.238
		C91.269,389.155,91.525,388.968,91.791,388.8z"></path>
</g>
</svg>
