<!--?xml version="1.0" encoding="utf-8"?-->
<!-- Generator: Adobe Illustrator 18.1.1, SVG Export Plug-In . SVG Version: 6.00 Build 0)  -->

<svg version="1.1" id="_x32_" xmlns="http://www.w3.org/2000/svg" xmlns:xlink="http://www.w3.org/1999/xlink" x="0px" y="0px" viewBox="0 0 512 512" style="width: 256px; height: 256px; opacity: 1;" xml:space="preserve">
<style type="text/css">
	.st0{fill:#4B4B4B;}
</style>
<g>
	<path class="st0" d="M492.85,283.543c-10.175-21.337-25.773-41.732-47.074-59.827c-11.954-10.148-24.804-18.787-37.269-27.192
		c-18.714-12.563-36.478-24.696-49.516-38.795c-6.548-7.04-11.954-14.503-16.102-22.882c-4.14-8.387-7.077-17.736-8.406-28.961
		c-3.637-30.9-4.31-56.818-4.31-71.635c0-4.392,0.053-7.804,0.116-10.094c0.027-1.14,0.054-2.002,0.072-2.559l0.026-0.601
		l0.009-0.126v-0.009L331.376,0H180.292l0.988,20.852v0.008c0.018,0.341,0.224,5.155,0.224,13.39c0,14.817-0.674,40.734-4.32,71.635
		c-1.787,14.952-6.349,26.6-12.958,37.053c-4.976,7.822-11.189,14.926-18.446,21.687c-10.858,10.139-24.058,19.388-37.96,28.764
		c-13.893,9.402-28.467,18.912-41.929,30.326c-21.194,18.005-36.702,38.22-46.832,59.341C8.922,304.188,4.207,326.181,4.216,347.482
		c0,27.659,7.866,54.097,21.588,76.674c13.713,22.576,33.327,41.39,57.097,53.72c32.23,16.721,64.397,25.253,93.978,29.581
		c29.581,4.338,56.684,4.526,78.955,4.534c3.242,0,6.546,0.009,9.914,0.009c21.158-0.009,45.044-0.26,72.049-4.67
		c26.994-4.4,57.024-13.004,90.485-29.204c24.21-11.719,44.066-30.335,57.869-52.831c13.811-22.513,21.624-49.005,21.633-76.718
		C507.793,327.088,503.043,304.87,492.85,283.543z M452.205,404.462c-10.032,16.353-24.31,29.608-41.274,37.816
		c-30.093,14.53-56.01,21.876-79.556,25.737c-23.555,3.844-44.82,4.149-65.628,4.149c-3.313,0-6.618-0.009-9.914-0.009
		c-21.984,0.009-46.887-0.251-73.18-4.104c-26.304-3.861-53.891-11.261-81.415-25.531c-16.973-8.791-31.333-22.478-41.39-39.046
		c-10.067-16.569-15.806-35.93-15.796-55.992c0.009-15.482,3.367-31.404,10.929-47.2c7.57-15.778,19.388-31.467,36.711-46.213
		c9.636-8.199,21.301-16.147,33.738-24.508c18.616-12.599,39.037-26.069,56.424-44.703c8.665-9.313,16.532-19.981,22.639-32.356
		c6.124-12.357,10.434-26.375,12.258-41.965c3.448-29.348,4.391-54.286,4.562-70.702h69.049c0.17,16.416,1.104,41.354,4.562,70.702
		c2.415,20.789,9.321,38.758,18.912,53.782c7.184,11.28,15.769,20.942,24.902,29.447c13.713,12.761,28.647,23.043,42.818,32.625
		c14.171,9.564,27.588,18.446,38.426,27.677c17.376,14.782,29.276,30.64,36.918,46.635c7.633,16.002,11.037,32.194,11.046,47.873
		C467.957,368.765,462.227,388.117,452.205,404.462z"></path>
	<path class="st0" d="M321.479,285.437c-7.507-11.845-14.763-22.558-20.007-34.232c-5.227-11.692-8.711-24.274-8.756-41.085
		c0-8.549-6.933-15.491-15.482-15.491c-8.558,0-15.5,6.942-15.5,15.491c-0.018,18.948,3.763,35.04,9.339,48.772
		c4.166,10.3,9.268,19.29,14.323,27.497c7.624,12.312,15.051,22.936,20.268,33.766c5.218,10.875,8.523,21.742,8.568,36.146
		c0.008,14.548-3.601,33.065-13.974,57.85c-3.304,7.885,0.414,16.964,8.307,20.268c7.894,3.296,16.973-0.413,20.269-8.306
		c11.486-27.426,16.379-50.056,16.388-69.812c0.027-17.332-3.897-32.213-9.51-44.956
		C331.511,301.772,326.455,293.349,321.479,285.437z"></path>
	<path class="st0" d="M173.619,255.677c-7.849-3.412-16.973,0.188-20.376,8.037c-13.641,31.467-18.158,63.993-18.176,91.311
		c0.008,12.788,1.005,24.444,2.622,34.475c0.808,5.02,1.769,9.627,2.874,13.812c1.104,4.185,2.335,7.93,3.799,11.36
		c3.368,7.867,12.474,11.513,20.34,8.136c7.867-3.368,11.513-12.474,8.136-20.331v-0.009c-0.674-1.562-1.518-4.014-2.318-7.058
		c-2.442-9.187-4.481-23.672-4.462-40.384c-0.018-23.896,4.076-52.49,15.599-78.972C185.07,268.204,181.469,259.08,173.619,255.677z
		"></path>
</g>
</svg>
